<?xml version="1.0" standalone="no"?>
<!DOCTYPE svg PUBLIC "-//W3C//DTD SVG 20010904//EN"
 "http://www.w3.org/TR/2001/REC-SVG-20010904/DTD/svg10.dtd">
<svg version="1.0" xmlns="http://www.w3.org/2000/svg"
 width="510.000000pt" height="510.000000pt" viewBox="0 0 510.000000 510.000000"
 preserveAspectRatio="xMidYMid meet">
<metadata>
Created by potrace 1.14, written by Peter Selinger 2001-2017
</metadata>
<g transform="translate(0.000000,510.000000) scale(0.100000,-0.100000)"
fill="#000000" stroke="none">
<path d="M2498 5045 c-2 -1 -84 -5 -183 -9 -170 -5 -201 -8 -285 -22 -19 -4
-51 -8 -70 -10 -105 -11 -323 -55 -390 -79 -25 -9 -52 -18 -60 -20 -29 -7
-175 -60 -180 -65 -8 -8 -64 -34 -75 -35 -5 0 -45 -19 -88 -43 -43 -23 -83
-42 -88 -42 -5 0 -9 -4 -9 -9 0 -5 -13 -14 -30 -21 -16 -7 -42 -23 -57 -36
-16 -13 -33 -24 -38 -24 -6 0 -21 -10 -35 -22 -14 -13 -45 -39 -70 -59 -57
-47 -161 -149 -152 -149 4 0 -1 -7 -10 -14 -22 -16 -98 -127 -139 -202 -35
-65 -91 -194 -83 -194 3 0 -1 -10 -7 -22 -7 -13 -14 -34 -15 -48 -1 -14 -6
-43 -11 -65 -9 -50 -9 -219 1 -263 4 -17 14 -44 22 -60 7 -15 14 -31 14 -37 0
-5 11 -23 25 -39 13 -16 27 -37 30 -47 4 -10 10 -18 15 -16 4 1 16 -7 26 -19
24 -25 109 -84 123 -84 6 0 11 -5 11 -12 0 -6 3 -8 6 -5 4 3 15 2 26 -4 11 -6
28 -12 39 -15 10 -2 29 -7 41 -10 31 -8 228 -11 233 -4 2 3 18 7 36 8 75 6
151 60 208 146 14 23 34 50 43 60 10 11 18 23 18 27 0 6 81 130 107 164 4 6
24 34 43 63 19 28 38 52 43 52 4 0 7 6 7 13 0 22 188 207 210 207 5 0 10 5 10
10 0 6 5 10 11 10 6 0 17 6 24 13 33 29 45 37 54 37 5 0 16 6 23 13 14 13 68
36 106 44 12 3 22 8 22 12 0 4 8 7 18 8 9 0 44 8 77 16 33 9 83 19 110 22 28
3 77 8 110 12 134 15 595 2 595 -17 0 -4 14 -6 30 -5 17 1 30 -1 30 -5 0 -4
10 -6 22 -5 12 1 34 -4 48 -12 14 -7 29 -13 33 -13 15 0 124 -57 148 -78 56
-48 66 -59 91 -92 31 -43 91 -150 83 -150 -3 0 2 -11 11 -24 8 -14 16 -29 16
-33 0 -4 2 -12 3 -18 20 -73 36 -138 41 -170 3 -22 11 -48 16 -59 7 -13 7 -16
-1 -12 -8 5 -8 0 -2 -16 4 -13 8 -35 7 -50 -1 -16 1 -28 5 -28 3 0 5 -21 5
-46 -1 -25 3 -48 7 -51 4 -3 4 -10 -2 -16 -9 -12 -11 -18 -11 -36 0 -5 -19
-12 -42 -16 -24 -4 -54 -12 -68 -18 -14 -5 -34 -12 -44 -14 -11 -2 -40 -10
-64 -19 -25 -8 -47 -12 -50 -9 -3 2 -10 1 -16 -4 -6 -5 -24 -11 -41 -14 -16
-3 -50 -11 -75 -18 -25 -7 -48 -13 -52 -15 -5 -1 -9 -2 -10 -4 -2 -1 -10 -3
-18 -5 -16 -4 -48 -12 -80 -20 -25 -6 -37 -9 -130 -31 -41 -9 -81 -17 -87 -17
-7 0 -13 -3 -13 -6 0 -5 -21 -9 -72 -14 -10 -1 -18 -5 -18 -9 0 -4 -8 -7 -17
-7 -24 1 -75 -9 -144 -27 -31 -8 -69 -14 -83 -14 -14 0 -26 -3 -26 -8 0 -4
-12 -8 -27 -9 -16 0 -41 -4 -58 -8 -16 -4 -37 -9 -45 -10 -8 -1 -22 -5 -30 -8
-8 -3 -64 -15 -125 -27 -60 -12 -119 -24 -130 -27 -11 -2 -36 -7 -55 -9 -19
-3 -42 -8 -50 -11 -8 -4 -26 -8 -40 -9 -14 -2 -47 -8 -75 -14 -27 -6 -66 -13
-85 -16 -19 -3 -37 -9 -40 -13 -3 -3 -16 -7 -30 -8 -14 -1 -38 -5 -55 -8 -16
-3 -39 -7 -50 -8 -11 -2 -26 -6 -33 -11 -7 -4 -16 -5 -19 -2 -3 3 -13 1 -23
-4 -9 -5 -29 -11 -44 -14 -15 -3 -53 -13 -84 -22 -31 -10 -60 -17 -64 -16 -5
1 -8 -3 -8 -9 0 -6 -6 -9 -14 -6 -8 3 -17 3 -21 -1 -4 -4 -10 -7 -13 -8 -16
-2 -77 -28 -129 -55 -30 -16 -60 -26 -64 -23 -5 3 -9 1 -9 -4 0 -5 -19 -17
-41 -28 -23 -10 -47 -23 -53 -29 -16 -15 -70 -49 -74 -46 -2 1 -12 -7 -21 -18
-10 -12 -21 -21 -24 -21 -18 0 -227 -202 -227 -219 0 -7 -4 -10 -9 -6 -5 3
-12 -3 -16 -14 -3 -11 -19 -34 -35 -53 -16 -18 -30 -37 -30 -42 0 -4 -13 -27
-28 -50 -63 -93 -156 -351 -144 -399 1 -4 -1 -7 -6 -7 -9 0 -12 -37 -16 -252
-1 -98 0 -178 4 -178 4 0 7 -6 7 -12 0 -28 15 -115 25 -153 6 -22 11 -44 12
-50 1 -5 8 -20 14 -33 7 -12 11 -26 8 -31 -3 -5 1 -14 9 -21 8 -7 15 -20 15
-29 0 -9 7 -27 16 -39 8 -12 13 -22 10 -22 -3 0 9 -24 26 -53 17 -28 31 -57
31 -64 0 -7 3 -10 7 -8 3 2 11 -9 18 -24 7 -15 21 -37 32 -49 12 -12 18 -22
15 -22 -4 0 0 -6 7 -14 7 -7 31 -35 53 -61 53 -65 126 -137 172 -172 21 -15
46 -36 57 -45 10 -9 32 -24 50 -32 17 -9 27 -16 21 -16 -5 -1 4 -7 20 -16 17
-8 39 -20 50 -27 47 -29 91 -51 99 -49 4 2 13 -3 20 -11 12 -14 121 -60 143
-60 7 0 13 -4 13 -8 0 -5 7 -6 15 -3 8 4 15 1 15 -5 0 -6 8 -11 17 -11 17 0
75 -17 103 -29 8 -4 35 -8 60 -10 25 -2 52 -7 61 -12 9 -4 19 -6 22 -2 3 3 14
2 24 -2 18 -8 70 -11 268 -19 77 -3 112 -1 117 7 5 7 8 8 8 1 0 -11 101 -11
119 1 6 3 11 1 11 -5 0 -8 6 -8 21 0 11 7 27 9 35 6 8 -3 14 -2 14 3 0 4 18 7
40 7 22 -1 40 2 40 5 0 3 19 7 43 8 69 2 106 9 212 37 11 3 27 7 35 9 8 2 15
4 15 5 0 1 13 4 30 6 16 3 32 8 35 12 5 7 14 10 48 15 9 1 22 5 27 8 6 3 29
11 53 19 23 7 42 17 42 21 0 5 7 6 15 3 8 -4 15 -1 15 5 0 6 3 10 8 9 8 -1 27
6 92 35 25 11 48 19 53 19 4 -1 7 3 7 9 0 6 7 9 15 5 8 -3 15 -1 15 3 0 5 29
23 64 40 36 17 68 36 71 41 4 6 11 8 16 5 5 -4 12 1 15 10 4 9 13 14 21 11 8
-3 11 -1 8 4 -3 6 3 10 14 10 12 0 21 4 21 8 0 5 21 21 48 36 82 47 117 68
122 75 8 10 69 51 75 51 4 0 13 6 20 13 21 18 37 30 73 56 18 13 47 36 65 52
17 16 36 29 42 29 10 0 75 -96 75 -111 0 -5 5 -9 10 -9 6 0 10 -7 10 -15 0 -9
7 -18 15 -21 8 -4 12 -10 9 -15 -3 -5 0 -9 5 -9 6 0 11 -7 11 -15 0 -9 7 -18
15 -21 8 -4 12 -10 9 -15 -3 -5 -2 -9 3 -9 4 0 24 -23 43 -50 19 -27 38 -50
43 -50 4 0 7 -4 7 -10 0 -11 19 -35 73 -92 20 -22 37 -44 37 -49 0 -5 5 -9 11
-9 6 0 23 -12 37 -28 31 -31 107 -92 116 -92 4 0 25 -12 49 -27 23 -14 42 -25
42 -24 0 5 60 -10 78 -20 12 -6 17 -6 17 3 0 9 2 10 8 2 8 -13 110 -14 130 -1
7 5 12 3 12 -5 0 -9 3 -9 10 2 5 8 10 12 10 7 0 -4 16 -1 35 7 20 9 38 15 40
16 35 5 67 14 71 21 3 5 10 7 15 4 5 -4 9 -1 9 4 0 6 4 11 10 11 5 0 18 7 27
15 10 8 21 15 26 15 8 0 20 10 101 89 31 30 58 63 62 73 3 10 9 18 13 18 8 0
36 71 33 83 -1 4 2 7 6 7 5 0 9 6 10 13 1 6 4 26 6 42 7 42 8 104 1 145 -9 52
-13 75 -15 75 -1 0 -4 11 -6 25 -12 67 -59 226 -68 232 -6 4 -8 8 -4 8 4 0 1
18 -7 40 -8 22 -12 40 -10 40 3 0 0 12 -6 28 -13 31 -21 69 -23 95 0 9 -5 17
-10 17 -5 0 -7 3 -4 6 4 3 2 20 -4 37 -5 18 -12 48 -14 67 -2 19 -7 42 -11 50
-19 48 -39 330 -36 530 4 358 4 1453 -1 1530 -9 136 -20 245 -25 253 -1 1 -4
22 -6 47 -2 25 -6 59 -10 75 -3 17 -8 44 -11 60 -5 37 -12 68 -15 75 -1 3 -3
10 -4 15 -8 47 -29 132 -36 144 -4 9 -22 56 -40 106 -31 86 -50 126 -85 181
-9 13 -13 24 -10 24 8 0 -43 71 -59 82 -5 4 -7 8 -3 8 9 0 -19 34 -74 93 -21
22 -38 41 -38 43 0 2 -11 14 -25 28 -14 14 -25 22 -25 19 0 -3 -8 4 -19 15
-10 12 -21 19 -25 15 -3 -3 -6 -1 -6 5 0 7 -34 34 -75 61 -41 28 -75 48 -75
45 0 -3 -7 2 -16 10 -8 9 -22 16 -30 16 -8 0 -14 5 -14 10 0 6 -8 10 -17 10
-10 0 -27 7 -37 15 -10 8 -23 12 -27 9 -5 -3 -9 -1 -9 4 0 6 -20 16 -45 23
-25 7 -45 17 -45 21 0 4 -7 5 -15 2 -8 -4 -15 -1 -15 5 0 6 -7 8 -15 5 -8 -4
-15 -2 -15 3 0 5 -6 10 -12 10 -30 1 -71 13 -84 24 -8 6 -14 8 -14 5 0 -4 -8
-3 -17 3 -10 5 -39 12 -65 15 -26 4 -53 9 -60 11 -7 2 -25 7 -40 10 -16 3 -38
7 -50 9 -47 9 -105 17 -154 21 -29 2 -80 9 -115 14 -93 15 -619 36 -631 26z
m1001 -2544 c9 -6 10 -11 2 -15 -7 -4 -8 -14 -3 -24 9 -19 8 -89 -1 -98 -4 -4
-2 -15 3 -25 7 -12 7 -20 0 -24 -7 -4 -7 -12 0 -24 5 -10 7 -21 4 -23 -3 -3
-7 -63 -9 -134 -5 -120 -11 -219 -15 -219 -1 0 -3 -15 -5 -34 -22 -210 -89
-416 -172 -528 -13 -18 -25 -36 -26 -40 -5 -21 -137 -159 -148 -156 -5 2 -9
-4 -9 -13 0 -8 -4 -12 -10 -9 -5 3 -10 2 -10 -3 0 -6 -20 -23 -45 -39 -25 -15
-45 -31 -45 -35 0 -5 -7 -8 -15 -8 -8 0 -15 -3 -15 -7 0 -5 -10 -13 -23 -19
-12 -6 -44 -22 -72 -36 -65 -34 -127 -61 -195 -84 -30 -10 -57 -21 -60 -24 -3
-3 -10 -6 -16 -7 -6 -1 -23 -5 -38 -8 -79 -16 -124 -23 -191 -30 -27 -2 -77
-7 -110 -11 -72 -7 -64 -7 -150 0 -74 6 -104 11 -170 27 -22 6 -46 11 -52 11
-7 1 -13 5 -13 9 0 5 -7 6 -15 3 -8 -4 -15 -2 -15 4 0 5 -7 13 -16 16 -10 4
-13 2 -8 -7 4 -6 -1 -5 -12 4 -10 9 -34 22 -51 30 -18 8 -33 17 -33 21 0 5 -5
8 -12 8 -7 0 -21 9 -33 19 -11 11 -43 41 -71 68 -28 26 -61 64 -74 83 -13 19
-27 37 -30 40 -3 3 -14 24 -24 48 -11 23 -24 42 -29 42 -6 0 -7 3 -4 6 3 4 2
15 -3 25 -6 10 -12 33 -14 51 -3 18 -6 33 -7 33 -4 0 -8 57 -8 145 0 120 2
140 11 140 4 0 5 9 3 20 -2 11 1 22 6 25 5 4 7 11 4 16 -4 5 -1 9 4 9 6 0 11
8 11 19 0 10 7 24 15 31 8 7 15 18 15 25 0 7 22 36 48 64 26 28 46 51 44 51
-3 0 17 17 44 37 27 20 51 41 52 45 2 4 10 8 18 8 8 0 14 5 14 12 0 6 3 8 6 5
4 -4 19 2 33 12 41 29 129 70 135 64 3 -4 6 0 6 7 0 7 3 11 6 7 3 -3 25 1 47
10 23 8 53 16 67 18 14 1 37 8 53 14 15 6 27 8 27 6 0 -2 12 0 28 6 15 6 38
13 52 14 14 2 36 6 50 10 14 3 36 8 50 11 14 3 43 10 65 15 22 6 51 12 65 14
14 1 25 4 25 5 0 1 9 3 19 5 11 2 31 7 45 11 14 4 35 8 46 9 11 1 27 4 35 8 8
3 29 8 45 11 93 15 146 26 153 30 11 7 62 18 90 19 12 1 22 5 22 10 0 5 7 7
15 4 8 -4 17 -2 20 3 3 5 13 9 23 8 19 0 32 3 125 27 34 9 69 18 77 20 8 2 16
4 18 5 1 2 7 4 12 5 6 1 11 3 13 5 1 1 13 4 27 6 41 7 54 11 83 23 15 6 40 14
55 17 15 4 32 9 37 13 6 3 15 6 20 7 25 3 55 17 55 25 0 11 11 11 29 0z"/>
</g>
</svg>
