<?xml version="1.0" standalone="no"?>
<!DOCTYPE svg PUBLIC "-//W3C//DTD SVG 20010904//EN"
 "http://www.w3.org/TR/2001/REC-SVG-20010904/DTD/svg10.dtd">
<svg version="1.0" xmlns="http://www.w3.org/2000/svg"
 width="4096.000000pt" height="4096.000000pt" viewBox="0 0 4096.000000 4096.000000"
 preserveAspectRatio="xMidYMid meet">

<g transform="translate(0.000000,4096.000000) scale(0.100000,-0.100000)"
fill="#000000" stroke="none">
<path d="M9235 40945 c-138 -26 -213 -64 -293 -149 -58 -61 -91 -124 -119
-226 -17 -62 -18 -869 -18 -20090 0 -19221 1 -20028 18 -20090 54 -198 164
-309 362 -367 56 -17 189 -18 2250 -21 2437 -3 2300 -6 2443 64 94 46 165 117
208 208 69 149 64 -246 64 4635 l0 4409 1232 1172 1232 1172 21 -24 c11 -13
2000 -2543 4420 -5623 2420 -3079 4427 -5628 4460 -5663 111 -120 266 -228
415 -289 163 -68 -66 -63 3052 -63 3068 0 2884 -3 2996 54 57 29 116 88 136
137 14 34 12 52 -41 342 l-57 307 -5554 6902 c-3055 3797 -5679 7059 -5832
7249 l-278 345 5602 5422 c4237 4100 5609 5434 5629 5470 77 141 77 341 -1
500 -39 81 -131 175 -206 212 -129 64 75 60 -3031 60 -1878 0 -2852 -4 -2895
-10 -211 -34 -442 -159 -646 -352 -43 -40 -2453 -2474 -5357 -5408 -2904
-2934 -5284 -5336 -5288 -5338 -5 -2 -9 5438 -9 12283 0 11068 -2 12293 -16
12363 -41 207 -159 338 -359 398 -57 18 -168 19 -2265 20 -1796 2 -2218 0
-2275 -11z"/>
</g>
</svg>
